<svg width="109" height="33" viewBox="0 0 109 33" fill="none" xmlns="http://www.w3.org/2000/svg">
<g clip-path="url(#clip0_0_53)">
<path d="M102.434 0H6.56627C2.93982 0 0 2.95492 0 6.6V26.4C0 30.0451 2.93982 33 6.56627 33H102.434C106.06 33 109 30.0451 109 26.4V6.6C109 2.95492 106.06 0 102.434 0Z" fill="#D6DEEA"/>
<path fill-rule="evenodd" clip-rule="evenodd" d="M34.878 24.6708H35.7139C35.7355 24.455 35.7881 24.2563 35.8715 24.0742C35.9503 23.8976 36.0617 23.7377 36.1998 23.6029C36.3363 23.4709 36.4966 23.3686 36.6817 23.294C36.8662 23.2195 37.0711 23.1818 37.2957 23.1818C37.5445 23.1818 37.7678 23.2254 37.9654 23.3125C38.1624 23.3996 38.3312 23.5198 38.4691 23.6729C38.6076 23.826 38.7133 24.0068 38.7869 24.2154C38.8604 24.4233 38.8972 24.6503 38.8972 24.8945V24.9632C38.8972 25.2074 38.8604 25.4338 38.7869 25.6423C38.7183 25.8424 38.6102 26.0265 38.4691 26.1835C38.3312 26.3353 38.1637 26.4541 37.9667 26.5399C37.7698 26.6264 37.5485 26.6693 37.3022 26.6693C37.0711 26.6693 36.8616 26.631 36.6732 26.5544C36.4914 26.4815 36.3257 26.3731 36.1859 26.2355C36.046 26.0979 35.9347 25.9337 35.8583 25.7525C35.7753 25.5581 35.7253 25.3511 35.7106 25.1401H34.878V26.6072H34.2745V23.2439H34.878V24.6708ZM36.3075 24.9632C36.3075 25.1308 36.3272 25.2892 36.3685 25.4384C36.4099 25.5875 36.4723 25.7189 36.555 25.8317C36.6384 25.9446 36.7421 26.0344 36.8662 26.1004C36.991 26.1664 37.1355 26.2 37.3022 26.2C37.4664 26.2 37.6109 26.167 37.7369 26.101C37.8617 26.0344 37.9661 25.9446 38.0482 25.8317C38.1302 25.7189 38.1926 25.5875 38.234 25.4384C38.2767 25.2892 38.2977 25.1308 38.2977 24.9632V24.8945C38.2977 24.7289 38.2767 24.5711 38.234 24.4207C38.1958 24.2787 38.1322 24.1449 38.0462 24.026C37.9635 23.9134 37.8567 23.8209 37.7336 23.7554C37.5983 23.6856 37.4477 23.6509 37.2957 23.6544C37.1315 23.6544 36.9877 23.6874 36.8649 23.7554C36.743 23.8215 36.6372 23.9139 36.555 24.026C36.4691 24.1448 36.4059 24.2786 36.3685 24.4207C36.3271 24.5751 36.3065 24.7345 36.3075 24.8945V24.9632ZM41.263 25.1744H40.825V26.6072H40.2223V23.2439H40.825V24.6675H41.2177L42.3977 23.2439H43.1239L41.7364 24.8609L43.2401 26.6072H42.4784L41.263 25.1744ZM47.1621 23.2439V26.6072H46.5594V23.7197H45.3696L45.3275 24.6833C45.3124 25.0021 45.2835 25.282 45.2415 25.5222C45.2095 25.7323 45.1431 25.9357 45.0452 26.1241C44.9646 26.2764 44.8419 26.402 44.6919 26.4858C44.5448 26.567 44.3603 26.6072 44.1377 26.6072H43.9624L43.9755 26.0944L44.1055 26.0911C44.2069 26.0954 44.307 26.0677 44.3918 26.0119C44.4745 25.9482 44.537 25.8618 44.5718 25.7631C44.6177 25.6509 44.6512 25.505 44.6742 25.3268C44.6965 25.1486 44.7149 24.9341 44.7274 24.6833L44.793 23.2445H47.1621V23.2439ZM50.8209 26.6072C50.7965 26.5575 50.779 26.5047 50.769 26.4502C50.7558 26.3848 50.745 26.319 50.7368 26.2528C50.6779 26.3112 50.6144 26.3648 50.5471 26.4132C50.3112 26.5821 50.0283 26.6718 49.7387 26.6693C49.5588 26.6693 49.3966 26.6429 49.2509 26.5914C49.1145 26.5451 48.988 26.4735 48.8779 26.3802C48.7758 26.2936 48.6939 26.1854 48.6382 26.0633C48.5824 25.9413 48.5542 25.8083 48.5555 25.674C48.5555 25.4945 48.5923 25.3354 48.6658 25.1975C48.7394 25.0595 48.8444 24.944 48.981 24.851C49.1189 24.7579 49.285 24.6873 49.4794 24.6398C49.6737 24.5923 49.8911 24.5678 50.1308 24.5678H50.727V24.3038C50.727 24.1032 50.6646 23.9428 50.5392 23.824C50.4144 23.7046 50.2292 23.6452 49.985 23.6452C49.8727 23.6452 49.7696 23.6597 49.6764 23.6887C49.5913 23.7139 49.5109 23.7532 49.4387 23.8049C49.3762 23.85 49.3238 23.9078 49.285 23.9745C49.2491 24.0357 49.23 24.1054 49.2299 24.1765H48.6264C48.6264 24.0563 48.6593 23.9369 48.7249 23.8187C48.7912 23.7013 48.8851 23.5943 49.006 23.5006C49.1268 23.4062 49.2732 23.329 49.4452 23.2703C49.6173 23.2109 49.809 23.1818 50.0204 23.1818C50.2109 23.1818 50.3862 23.2049 50.5471 23.2518C50.7086 23.298 50.8458 23.3686 50.9607 23.463C51.075 23.5574 51.1643 23.6749 51.2299 23.8161C51.2943 23.9567 51.3271 24.1217 51.3271 24.3104V25.874C51.3271 25.9875 51.337 26.1076 51.3573 26.2324C51.3783 26.3578 51.4092 26.466 51.4499 26.5577V26.6072H50.8209ZM49.8261 26.169C49.9338 26.169 50.0362 26.1545 50.1308 26.1254C50.226 26.0964 50.312 26.0588 50.3901 26.0119C50.4645 25.9682 50.5325 25.9144 50.5924 25.8522C50.6501 25.7915 50.6948 25.7294 50.727 25.6654V24.9751H50.2279C49.8845 24.9751 49.6199 25.0265 49.4334 25.1295C49.2482 25.2318 49.155 25.3869 49.155 25.5941C49.155 25.6747 49.1688 25.7506 49.197 25.8205C49.2247 25.8906 49.2686 25.953 49.3251 26.0027C49.387 26.0562 49.4586 26.0975 49.5359 26.1241C49.6192 26.1538 49.7158 26.169 49.8261 26.169ZM54.3371 23.4366C54.5669 23.4366 54.7705 23.4749 54.9504 23.5514C55.1297 23.6287 55.282 23.7349 55.4074 23.8722C55.5322 24.0088 55.6287 24.1692 55.6944 24.3553C55.76 24.5401 55.7928 24.7421 55.7928 24.9599V25.0312C55.7928 25.2655 55.758 25.4826 55.6878 25.6826C55.6219 25.875 55.5171 26.0517 55.3798 26.2013C55.2417 26.3495 55.0738 26.4665 54.8874 26.5445C54.6781 26.6309 54.4536 26.6735 54.2274 26.6699C54.0013 26.6735 53.7768 26.6309 53.5675 26.5445C53.3807 26.4662 53.2126 26.3489 53.0744 26.2003C52.9362 26.0517 52.831 25.8752 52.7658 25.6826C52.6929 25.4733 52.6567 25.2529 52.6588 25.0312V24.7236C52.6588 24.3421 52.6969 24.0088 52.7737 23.7224C52.8505 23.4366 52.9582 23.1944 53.098 22.9951C53.2373 22.7964 53.404 22.6387 53.5984 22.5232C53.7934 22.407 54.0081 22.3271 54.2439 22.2836C54.357 22.2652 54.4694 22.2423 54.5807 22.2149C54.6805 22.1905 54.7646 22.1595 54.8355 22.1225C54.8995 22.0905 54.9546 22.0428 54.9957 21.9839C55.0342 21.9231 55.0534 21.852 55.0509 21.78H55.5433C55.5433 21.9833 55.5105 22.1437 55.4448 22.2618C55.3792 22.3799 55.2912 22.4723 55.1822 22.539C55.0654 22.608 54.9384 22.6576 54.8059 22.6862C54.6609 22.7191 54.5156 22.7505 54.3699 22.7806C54.2276 22.8105 54.0882 22.8533 53.9536 22.9086C53.8223 22.9621 53.7054 23.0347 53.6017 23.1264C53.4936 23.2232 53.4038 23.3388 53.3364 23.4676C53.2566 23.6236 53.203 23.7917 53.1775 23.9653C53.3195 23.8084 53.4892 23.6793 53.6779 23.5844C53.8716 23.4854 54.0915 23.4366 54.3378 23.4366H54.3371ZM54.2209 23.9092C54.0567 23.9092 53.9142 23.9375 53.7934 23.995C53.6775 24.0479 53.5749 24.1264 53.4933 24.2246C53.4145 24.321 53.3554 24.4332 53.318 24.5606C53.28 24.6902 53.261 24.8247 53.2615 24.9599V25.0312C53.2615 25.1889 53.2806 25.3387 53.318 25.48C53.3561 25.6225 53.4152 25.7466 53.4953 25.8535C53.5748 25.9604 53.6752 26.0449 53.7967 26.1083C53.9175 26.1716 54.0613 26.2033 54.2274 26.2033C54.3916 26.2033 54.5347 26.1716 54.6569 26.1083C54.7758 26.048 54.8792 25.9608 54.9589 25.8535C55.0377 25.7466 55.0968 25.6225 55.1349 25.4806C55.1743 25.3387 55.194 25.1889 55.194 25.0318V24.9592C55.194 24.8206 55.1743 24.688 55.1349 24.5606C55.0986 24.4377 55.0381 24.3235 54.957 24.2246C54.8742 24.1263 54.7705 24.0478 54.6536 23.995C54.5173 23.9349 54.3696 23.9057 54.2209 23.9092ZM59.0143 24.8945C59.0143 24.6503 59.0517 24.4233 59.1259 24.2154C59.2007 24.0068 59.3065 23.826 59.4437 23.6729C59.5831 23.5181 59.754 23.3952 59.9447 23.3125C60.1417 23.2254 60.3617 23.1818 60.6059 23.1818C60.8541 23.1818 61.0774 23.2254 61.2757 23.3125C61.4727 23.3996 61.6408 23.5198 61.7793 23.6729C61.9172 23.826 62.0236 24.0068 62.0971 24.2154C62.1707 24.4233 62.2068 24.6503 62.2068 24.8945V24.9632C62.2068 25.2074 62.1707 25.4338 62.0971 25.6423C62.0285 25.8424 61.9204 26.0265 61.7793 26.1835C61.6414 26.3353 61.4733 26.4541 61.277 26.5399C61.08 26.6264 60.8587 26.6693 60.6125 26.6693C60.3656 26.6693 60.1443 26.6264 59.948 26.5406C59.751 26.4548 59.5835 26.3353 59.445 26.1829C59.3038 26.0256 59.1953 25.8416 59.1259 25.6417C59.0498 25.4237 59.012 25.1941 59.0143 24.9632V24.8945ZM59.617 24.9632C59.617 25.1308 59.6374 25.2892 59.6788 25.4384C59.7195 25.5875 59.7818 25.7189 59.8652 25.8317C59.948 25.9446 60.0517 26.0344 60.1765 26.1004C60.3006 26.1664 60.4457 26.2 60.6125 26.2C60.7766 26.2 60.9211 26.167 61.0465 26.101C61.1719 26.0344 61.2757 25.9446 61.3578 25.8317C61.4398 25.7189 61.5022 25.5875 61.5442 25.4384C61.5863 25.2892 61.6073 25.1308 61.6073 24.9632V24.8945C61.6073 24.7289 61.5863 24.5711 61.5442 24.4207C61.5061 24.2787 61.4424 24.1449 61.3564 24.026C61.2736 23.9133 61.1665 23.8208 61.0432 23.7554C60.9081 23.6857 60.7578 23.651 60.6059 23.6544C60.4418 23.6544 60.2973 23.6874 60.1745 23.7554C60.0528 23.8216 59.9472 23.914 59.8652 24.026C59.7818 24.1382 59.7195 24.2702 59.6788 24.4207C59.6371 24.5751 59.6163 24.7345 59.617 24.8945V24.9632ZM66.3133 23.2439V26.6072H65.7105V23.7197H64.5207L64.4787 24.6833C64.4676 24.9645 64.4391 25.2446 64.3933 25.5222C64.3611 25.7324 64.2945 25.9357 64.1964 26.1241C64.1159 26.2763 63.9935 26.4019 63.8437 26.4858C63.6967 26.567 63.5121 26.6072 63.2896 26.6072H63.1142L63.1274 26.0944L63.2567 26.0911C63.3583 26.0955 63.4586 26.0678 63.5437 26.0119C63.6263 25.9482 63.6888 25.8618 63.7236 25.7631C63.7695 25.6509 63.803 25.505 63.826 25.3268C63.8483 25.1486 63.8661 24.9341 63.8792 24.6833L63.9442 23.2445H66.3133V23.2439ZM70.0764 23.2439H70.6759V26.6072H70.0764V24.1547L68.4592 26.6072H67.859V23.2439H68.4592V25.6991L70.0764 23.2439ZM75.0353 26.6072H74.4358V25.1711H72.8251V26.6072H72.2216V23.2439H72.8251V24.7018H74.4358V23.2439H75.0353V26.6072ZM78.7951 23.7197H77.1779V26.6072H76.5744V23.2439H78.7951V23.7191V23.7197ZM42.3931 18.5196L42.2348 18.0675L41.8704 17.0273C41.7495 16.6803 41.6282 16.3333 41.5066 15.9865L41.3477 15.5351H37.209L36.1637 18.5189H34.8011L38.6372 8.09357H39.9202L43.7562 18.5189H42.3931V18.5196ZM39.257 9.67559L39.0876 10.1561C38.9482 10.5517 38.8098 10.9477 38.6726 11.3441C38.5098 11.8166 38.3443 12.2885 38.1788 12.7604C38.0134 13.233 37.8735 13.629 37.7606 13.9491L37.5912 14.4296H40.9662L39.3004 9.67559H39.257ZM48.7019 10.659C49.6921 10.659 50.4945 11.022 51.1104 11.75C51.7257 12.4773 52.033 13.4356 52.033 14.6256C52.033 15.8149 51.7277 16.7739 51.1177 17.5012C50.507 18.2285 49.7112 18.5922 48.7308 18.5922C48.1779 18.5922 47.6881 18.4754 47.26 18.2417C46.8385 18.0141 46.4888 17.6723 46.2507 17.255H46.2219V21.12H44.9677V10.7303H46.1568V11.9948H46.1857C46.4116 11.5903 46.7531 11.2662 47.2101 11.0233C47.6696 10.7794 48.1823 10.6539 48.7019 10.6583V10.659ZM48.4715 17.4722C49.1589 17.4722 49.7105 17.2135 50.1262 16.6954C50.5418 16.1773 50.75 15.4876 50.75 14.6256C50.75 13.763 50.5418 13.0733 50.1262 12.5552C49.7105 12.0377 49.1589 11.779 48.4715 11.779C47.803 11.779 47.26 12.041 46.8417 12.5664C46.4234 13.0911 46.2146 13.7775 46.2146 14.6256C46.2146 15.473 46.4234 16.1594 46.8417 16.6848C47.26 17.2095 47.803 17.4722 48.4715 17.4722ZM57.2676 10.659C58.2578 10.659 59.0602 11.022 59.6755 11.75C60.2907 12.4773 60.5987 13.4356 60.5987 14.6256C60.5987 15.8149 60.2934 16.7739 59.6827 17.5012C59.072 18.2285 58.2775 18.5922 57.2965 18.5922C56.7436 18.5922 56.2531 18.4754 55.8257 18.2417C55.4042 18.0141 55.0545 17.6723 54.8164 17.255H54.7876V21.12H53.5334V10.7303H54.7219V11.9948H54.7514C54.9773 11.5903 55.3188 11.2662 55.7751 11.0233C56.2349 10.7793 56.7477 10.6538 57.2676 10.6583V10.659ZM57.0372 17.4722C57.724 17.4722 58.2756 17.2135 58.6919 16.6954C59.1075 16.1773 59.3156 15.4876 59.3156 14.6256C59.3156 13.763 59.1075 13.0733 58.6919 12.5552C58.2756 12.0377 57.724 11.779 57.0372 11.779C56.3687 11.779 55.8257 12.041 55.4074 12.5664C54.9891 13.0911 54.7803 13.7775 54.7803 14.6256C54.7803 15.473 54.9891 16.1594 55.4074 16.6848C55.8257 17.2095 56.3687 17.4722 57.0372 17.4722ZM65.4728 15.6512C65.5352 16.5713 65.9187 17.3078 66.6226 17.8622C67.3265 18.4166 68.2294 18.6932 69.3299 18.6932C70.5269 18.6932 71.4751 18.4147 72.1744 17.8583C72.8737 17.3026 73.2237 16.5475 73.2237 15.5938C73.2237 14.8467 72.9873 14.2494 72.5165 13.8019C72.0457 13.3538 71.2715 12.9947 70.1953 12.7255L69.1066 12.4364C68.4001 12.2529 67.8918 12.0351 67.5813 11.783C67.2713 11.5295 67.1164 11.2055 67.1164 10.8108C67.1164 10.3 67.3291 9.88613 67.7546 9.56801C68.1801 9.24989 68.729 9.09083 69.4021 9.09083C70.0797 9.09083 70.63 9.25253 71.0528 9.57527C71.4764 9.89801 71.716 10.3389 71.7738 10.8973H73.072C73.0431 10.0208 72.6898 9.30533 72.0122 8.75159C71.3345 8.19719 70.479 7.92065 69.4448 7.92065C68.364 7.92065 67.4808 8.19521 66.7953 8.74433C66.1104 9.29345 65.7683 10.0016 65.7683 10.8682C65.7683 12.2318 66.6909 13.1492 68.5367 13.6211L69.8709 13.9682C70.5722 14.1464 71.083 14.3774 71.4028 14.6612C71.7226 14.9457 71.8822 15.3094 71.8822 15.7522C71.8822 16.2631 71.6523 16.6855 71.194 17.0207C70.7344 17.3554 70.1546 17.5223 69.4526 17.5223C68.712 17.5223 68.0967 17.3514 67.6069 17.0095C67.1164 16.6676 66.8399 16.2149 66.7775 15.6512H65.4728ZM75.1699 8.97533V10.7309H74.0884V11.7718H75.1699V16.4967C75.1699 17.2432 75.3203 17.7771 75.6203 18.0972C75.9211 18.4173 76.4221 18.5777 77.124 18.5777C77.2731 18.5777 77.4261 18.5711 77.5817 18.5592C77.738 18.5473 77.8548 18.5315 77.9317 18.513V17.4504C77.8883 17.455 77.8069 17.4623 77.6861 17.4722C77.5878 17.4808 77.4892 17.4857 77.3906 17.4867C77.059 17.4867 76.8154 17.4022 76.6591 17.2339C76.5028 17.065 76.4247 16.8023 76.4247 16.4459V11.7718H77.9389V10.7309H76.4247V8.97533H75.1706H75.1699ZM82.7119 18.5915C81.6206 18.5915 80.7506 18.2318 80.1018 17.5118C79.4531 16.7917 79.128 15.8294 79.128 14.6256C79.128 13.4165 79.4531 12.4529 80.1018 11.7355C80.7506 11.018 81.6206 10.659 82.7119 10.659C83.8026 10.659 84.6726 11.018 85.322 11.7355C85.9707 12.4529 86.2951 13.4165 86.2951 14.6256C86.2951 15.8294 85.9707 16.7917 85.322 17.5118C84.6726 18.2318 83.8026 18.5922 82.7119 18.5922V18.5915ZM82.7119 17.4722C83.4375 17.4722 84.0035 17.2201 84.4099 16.7171C84.8157 16.2136 85.0186 15.5159 85.0186 14.6249C85.0186 13.7293 84.8157 13.031 84.4099 12.5301C84.0035 12.0292 83.4381 11.779 82.7119 11.779C81.9857 11.779 81.4197 12.0305 81.0139 12.5341C80.6074 13.037 80.4045 13.7346 80.4045 14.6256C80.4045 15.5166 80.6087 16.2136 81.0172 16.7171C81.4262 17.2201 81.9909 17.4722 82.7112 17.4722H82.7119ZM87.7942 18.5196H89.049V13.7009C89.049 13.1518 89.202 12.7083 89.5073 12.371C89.8127 12.0344 90.2172 11.8655 90.7221 11.8655C90.8758 11.8655 91.0163 11.8727 91.1437 11.8873C91.271 11.9018 91.359 11.9183 91.407 11.9374V10.7026C91.2356 10.6733 91.0621 10.6588 90.8882 10.659C90.4358 10.659 90.0385 10.7791 89.6945 11.02C89.3569 11.2525 89.1129 11.5984 89.0063 11.9955H88.9774V10.7309H87.7949V18.5196H87.7942ZM95.7545 11.7645C95.1438 11.7645 94.6382 11.9665 94.237 12.3717C93.8358 12.7756 93.6132 13.3082 93.5699 13.9682H97.8458C97.8314 13.3082 97.6331 12.7756 97.2509 12.371C96.8688 11.9665 96.3697 11.7638 95.7545 11.7638V11.7645ZM97.8163 16.2941H99.0573C98.9509 16.964 98.5957 17.5144 97.9896 17.9454C97.3842 18.3764 96.6652 18.5922 95.8339 18.5922C94.7426 18.5922 93.8765 18.2365 93.235 17.5263C92.5928 16.8155 92.2724 15.8585 92.2724 14.6546C92.2724 13.4455 92.5915 12.4766 93.2311 11.75C93.8706 11.0227 94.719 10.659 95.7761 10.659C96.8143 10.659 97.6364 11.0009 98.2418 11.6846C98.8478 12.3691 99.1506 13.301 99.1506 14.4811V14.9721H93.5699V15.0447C93.5699 15.7865 93.7793 16.3786 94.197 16.8221C94.6152 17.2649 95.1707 17.4867 95.8628 17.4867C96.3487 17.4867 96.7677 17.3791 97.1209 17.1653C97.4742 16.9508 97.706 16.6604 97.8169 16.2941H97.8163Z" fill="#295091"/>
<path d="M24.7574 25.016C23.8486 26.3439 22.909 27.6632 21.4257 27.691C19.9653 27.7187 19.4978 26.8264 17.8313 26.8264C16.1635 26.8264 15.6421 27.6632 14.2638 27.7187C12.8317 27.7721 11.7424 26.2845 10.8264 24.9625C8.95502 22.2605 7.52752 17.3217 9.44749 13.9887C10.3996 12.3334 12.1035 11.286 13.95 11.2583C15.3565 11.2319 16.6855 12.206 17.5444 12.206C18.4045 12.206 20.0172 11.0372 21.7126 11.2088C22.4224 11.2378 24.414 11.4946 25.6931 13.365C25.592 13.4317 23.3161 14.7556 23.3437 17.5131C23.3713 20.8078 26.2315 21.9021 26.265 21.9173C26.2387 21.9952 25.808 23.4808 24.7574 25.016ZM18.5286 7.59C19.3133 6.66996 20.6403 5.9862 21.7349 5.94C21.8748 7.21776 21.3607 8.49684 20.6016 9.4182C19.8399 10.3389 18.595 11.055 17.3723 10.96C17.2062 9.70992 17.8228 8.40642 18.528 7.59H18.5286Z" fill="#295091"/>
</g>
<defs>
<clipPath id="clip0_0_53">
<rect width="109" height="33" fill="white"/>
</clipPath>
</defs>
</svg>
