<svg width="221" height="50" viewBox="0 0 221 50" fill="none" xmlns="http://www.w3.org/2000/svg">
<rect opacity="0.3" x="1" y="1" width="219" height="48" rx="4" fill="#FBFBFB" stroke="#285193" stroke-width="2"/>
<path d="M17.98 32C17.848 32 17.746 31.964 17.674 31.892C17.602 31.808 17.566 31.706 17.566 31.586V19.832C17.566 19.7 17.602 19.598 17.674 19.526C17.746 19.442 17.848 19.4 17.98 19.4H26.854C26.986 19.4 27.088 19.442 27.16 19.526C27.244 19.598 27.286 19.7 27.286 19.832V31.586C27.286 31.706 27.244 31.808 27.16 31.892C27.088 31.964 26.986 32 26.854 32H25.936C25.816 32 25.714 31.964 25.63 31.892C25.558 31.808 25.522 31.706 25.522 31.586V21.02H19.33V31.586C19.33 31.706 19.288 31.808 19.204 31.892C19.132 31.964 19.03 32 18.898 32H17.98ZM30.596 35.42C30.476 35.42 30.374 35.378 30.29 35.294C30.218 35.222 30.182 35.126 30.182 35.006V23.054C30.182 22.934 30.218 22.838 30.29 22.766C30.374 22.682 30.476 22.64 30.596 22.64H31.424C31.544 22.64 31.64 22.682 31.712 22.766C31.796 22.838 31.838 22.934 31.838 23.054V23.846C32.126 23.45 32.51 23.12 32.99 22.856C33.47 22.592 34.07 22.46 34.79 22.46C35.462 22.46 36.032 22.574 36.5 22.802C36.98 23.03 37.37 23.342 37.67 23.738C37.982 24.134 38.216 24.584 38.372 25.088C38.528 25.592 38.612 26.132 38.624 26.708C38.636 26.9 38.642 27.104 38.642 27.32C38.642 27.536 38.636 27.74 38.624 27.932C38.612 28.496 38.528 29.036 38.372 29.552C38.216 30.056 37.982 30.506 37.67 30.902C37.37 31.286 36.98 31.598 36.5 31.838C36.032 32.066 35.462 32.18 34.79 32.18C34.094 32.18 33.506 32.054 33.026 31.802C32.558 31.538 32.174 31.214 31.874 30.83V35.006C31.874 35.126 31.838 35.222 31.766 35.294C31.694 35.378 31.592 35.42 31.46 35.42H30.596ZM34.412 30.722C35.036 30.722 35.522 30.59 35.87 30.326C36.23 30.05 36.488 29.696 36.644 29.264C36.8 28.82 36.89 28.346 36.914 27.842C36.926 27.494 36.926 27.146 36.914 26.798C36.89 26.294 36.8 25.826 36.644 25.394C36.488 24.95 36.23 24.596 35.87 24.332C35.522 24.056 35.036 23.918 34.412 23.918C33.824 23.918 33.344 24.056 32.972 24.332C32.612 24.608 32.342 24.962 32.162 25.394C31.994 25.814 31.898 26.246 31.874 26.69C31.862 26.882 31.856 27.11 31.856 27.374C31.856 27.638 31.862 27.872 31.874 28.076C31.886 28.496 31.982 28.91 32.162 29.318C32.354 29.726 32.636 30.062 33.008 30.326C33.38 30.59 33.848 30.722 34.412 30.722ZM41.2827 32C41.1747 32 41.0787 31.964 40.9947 31.892C40.9227 31.808 40.8867 31.718 40.8867 31.622V23.054C40.8867 22.934 40.9227 22.838 40.9947 22.766C41.0787 22.682 41.1807 22.64 41.3007 22.64H42.1647C42.2847 22.64 42.3807 22.682 42.4527 22.766C42.5247 22.838 42.5607 22.934 42.5607 23.054V30.686L42.0927 30.2L47.5467 22.91C47.6067 22.838 47.6727 22.778 47.7447 22.73C47.8167 22.67 47.9067 22.64 48.0147 22.64H48.8427C48.9387 22.64 49.0227 22.676 49.0947 22.748C49.1787 22.82 49.2207 22.904 49.2207 23V31.586C49.2207 31.706 49.1787 31.808 49.0947 31.892C49.0227 31.964 48.9267 32 48.8067 32H47.9607C47.8287 32 47.7267 31.964 47.6547 31.892C47.5827 31.808 47.5467 31.706 47.5467 31.586V24.404L48.0507 24.386L42.5607 31.73C42.5127 31.79 42.4527 31.85 42.3807 31.91C42.3087 31.97 42.2127 32 42.0927 32H41.2827ZM52.2694 32C52.1494 32 52.0474 31.964 51.9634 31.892C51.8914 31.808 51.8554 31.706 51.8554 31.586V23.054C51.8554 22.934 51.8914 22.838 51.9634 22.766C52.0474 22.682 52.1494 22.64 52.2694 22.64H53.1154C53.2354 22.64 53.3314 22.682 53.4034 22.766C53.4874 22.838 53.5294 22.934 53.5294 23.054V26.51H55.1674L57.5974 22.91C57.6574 22.826 57.7234 22.76 57.7954 22.712C57.8674 22.664 57.9634 22.64 58.0834 22.64H59.0194C59.1274 22.64 59.2174 22.664 59.2894 22.712C59.3614 22.76 59.3974 22.832 59.3974 22.928C59.3974 22.952 59.3854 22.988 59.3614 23.036C59.3494 23.072 59.3314 23.108 59.3074 23.144L56.6074 27.122L59.6674 31.478C59.7274 31.55 59.7574 31.628 59.7574 31.712C59.7574 31.808 59.7214 31.88 59.6494 31.928C59.5894 31.976 59.5054 32 59.3974 32H58.2994C58.1914 32 58.1014 31.976 58.0294 31.928C57.9574 31.88 57.8914 31.814 57.8314 31.73L55.1854 27.968H53.5294V31.586C53.5294 31.706 53.4874 31.808 53.4034 31.892C53.3314 31.964 53.2354 32 53.1154 32H52.2694ZM61.9378 35.42C61.8178 35.42 61.7158 35.378 61.6318 35.294C61.5598 35.222 61.5238 35.126 61.5238 35.006V23.054C61.5238 22.934 61.5598 22.838 61.6318 22.766C61.7158 22.682 61.8178 22.64 61.9378 22.64H62.7658C62.8858 22.64 62.9818 22.682 63.0538 22.766C63.1378 22.838 63.1798 22.934 63.1798 23.054V23.846C63.4678 23.45 63.8518 23.12 64.3318 22.856C64.8118 22.592 65.4118 22.46 66.1318 22.46C66.8038 22.46 67.3738 22.574 67.8418 22.802C68.3218 23.03 68.7118 23.342 69.0118 23.738C69.3238 24.134 69.5578 24.584 69.7138 25.088C69.8698 25.592 69.9538 26.132 69.9658 26.708C69.9778 26.9 69.9838 27.104 69.9838 27.32C69.9838 27.536 69.9778 27.74 69.9658 27.932C69.9538 28.496 69.8698 29.036 69.7138 29.552C69.5578 30.056 69.3238 30.506 69.0118 30.902C68.7118 31.286 68.3218 31.598 67.8418 31.838C67.3738 32.066 66.8038 32.18 66.1318 32.18C65.4358 32.18 64.8478 32.054 64.3678 31.802C63.8998 31.538 63.5158 31.214 63.2158 30.83V35.006C63.2158 35.126 63.1798 35.222 63.1078 35.294C63.0358 35.378 62.9338 35.42 62.8018 35.42H61.9378ZM65.7538 30.722C66.3778 30.722 66.8638 30.59 67.2118 30.326C67.5718 30.05 67.8298 29.696 67.9858 29.264C68.1418 28.82 68.2318 28.346 68.2558 27.842C68.2678 27.494 68.2678 27.146 68.2558 26.798C68.2318 26.294 68.1418 25.826 67.9858 25.394C67.8298 24.95 67.5718 24.596 67.2118 24.332C66.8638 24.056 66.3778 23.918 65.7538 23.918C65.1658 23.918 64.6858 24.056 64.3138 24.332C63.9538 24.608 63.6838 24.962 63.5038 25.394C63.3358 25.814 63.2398 26.246 63.2158 26.69C63.2038 26.882 63.1978 27.11 63.1978 27.374C63.1978 27.638 63.2038 27.872 63.2158 28.076C63.2278 28.496 63.3238 28.91 63.5038 29.318C63.6958 29.726 63.9778 30.062 64.3498 30.326C64.7218 30.59 65.1898 30.722 65.7538 30.722ZM75.9545 32.18C74.7185 32.18 73.7345 31.802 73.0025 31.046C72.2705 30.278 71.8685 29.234 71.7965 27.914C71.7845 27.758 71.7785 27.56 71.7785 27.32C71.7785 27.068 71.7845 26.864 71.7965 26.708C71.8445 25.856 72.0425 25.112 72.3905 24.476C72.7385 23.828 73.2125 23.33 73.8125 22.982C74.4245 22.634 75.1385 22.46 75.9545 22.46C76.8665 22.46 77.6285 22.652 78.2405 23.036C78.8645 23.42 79.3385 23.966 79.6625 24.674C79.9865 25.382 80.1485 26.21 80.1485 27.158V27.464C80.1485 27.596 80.1065 27.698 80.0225 27.77C79.9505 27.842 79.8545 27.878 79.7345 27.878H73.5065C73.5065 27.89 73.5065 27.914 73.5065 27.95C73.5065 27.986 73.5065 28.016 73.5065 28.04C73.5305 28.532 73.6385 28.994 73.8305 29.426C74.0225 29.846 74.2985 30.188 74.6585 30.452C75.0185 30.716 75.4505 30.848 75.9545 30.848C76.3865 30.848 76.7465 30.782 77.0345 30.65C77.3225 30.518 77.5565 30.374 77.7365 30.218C77.9165 30.05 78.0365 29.924 78.0965 29.84C78.2045 29.684 78.2885 29.594 78.3485 29.57C78.4085 29.534 78.5045 29.516 78.6365 29.516H79.5005C79.6205 29.516 79.7165 29.552 79.7885 29.624C79.8725 29.684 79.9085 29.774 79.8965 29.894C79.8845 30.074 79.7885 30.296 79.6085 30.56C79.4285 30.812 79.1705 31.064 78.8345 31.316C78.4985 31.568 78.0905 31.778 77.6105 31.946C77.1305 32.102 76.5785 32.18 75.9545 32.18ZM73.5065 26.636H78.4385V26.582C78.4385 26.042 78.3365 25.562 78.1325 25.142C77.9405 24.722 77.6585 24.392 77.2865 24.152C76.9145 23.9 76.4705 23.774 75.9545 23.774C75.4385 23.774 74.9945 23.9 74.6225 24.152C74.2625 24.392 73.9865 24.722 73.7945 25.142C73.6025 25.562 73.5065 26.042 73.5065 26.582V26.636ZM82.7148 32C82.5948 32 82.4928 31.964 82.4088 31.892C82.3368 31.808 82.3008 31.706 82.3008 31.586V23.054C82.3008 22.934 82.3368 22.838 82.4088 22.766C82.4928 22.682 82.5948 22.64 82.7148 22.64H89.8608C89.9808 22.64 90.0768 22.682 90.1488 22.766C90.2328 22.838 90.2748 22.934 90.2748 23.054V31.586C90.2748 31.706 90.2328 31.808 90.1488 31.892C90.0768 31.964 89.9808 32 89.8608 32H88.9968C88.8768 32 88.7808 31.964 88.7088 31.892C88.6368 31.808 88.6008 31.706 88.6008 31.586V24.08H83.9748V31.586C83.9748 31.706 83.9388 31.808 83.8668 31.892C83.7948 31.964 83.6988 32 83.5788 32H82.7148ZM93.3491 32C93.2411 32 93.1451 31.964 93.0611 31.892C92.9891 31.808 92.9531 31.718 92.9531 31.622V23.054C92.9531 22.934 92.9891 22.838 93.0611 22.766C93.1451 22.682 93.2471 22.64 93.3671 22.64H94.2311C94.3511 22.64 94.4471 22.682 94.5191 22.766C94.5911 22.838 94.6271 22.934 94.6271 23.054V30.686L94.1591 30.2L99.6131 22.91C99.6731 22.838 99.7391 22.778 99.8111 22.73C99.8831 22.67 99.9731 22.64 100.081 22.64H100.909C101.005 22.64 101.089 22.676 101.161 22.748C101.245 22.82 101.287 22.904 101.287 23V31.586C101.287 31.706 101.245 31.808 101.161 31.892C101.089 31.964 100.993 32 100.873 32H100.027C99.8951 32 99.7931 31.964 99.7211 31.892C99.6491 31.808 99.6131 31.706 99.6131 31.586V24.404L100.117 24.386L94.6271 31.73C94.5791 31.79 94.5191 31.85 94.4471 31.91C94.3751 31.97 94.2791 32 94.1591 32H93.3491ZM106.784 32C106.664 32 106.562 31.964 106.478 31.892C106.406 31.808 106.37 31.706 106.37 31.586V24.08H103.238C103.118 24.08 103.016 24.044 102.932 23.972C102.86 23.888 102.824 23.786 102.824 23.666V23.054C102.824 22.934 102.86 22.838 102.932 22.766C103.016 22.682 103.118 22.64 103.238 22.64H111.158C111.278 22.64 111.374 22.682 111.446 22.766C111.53 22.838 111.572 22.934 111.572 23.054V23.666C111.572 23.786 111.53 23.888 111.446 23.972C111.374 24.044 111.278 24.08 111.158 24.08H108.026V31.586C108.026 31.706 107.99 31.808 107.918 31.892C107.846 31.964 107.744 32 107.612 32H106.784ZM113.547 32C113.427 32 113.325 31.964 113.241 31.892C113.169 31.808 113.133 31.706 113.133 31.586V23.054C113.133 22.934 113.169 22.838 113.241 22.766C113.325 22.682 113.427 22.64 113.547 22.64H114.411C114.531 22.64 114.627 22.682 114.699 22.766C114.783 22.838 114.825 22.934 114.825 23.054V25.7H116.841C118.065 25.7 118.959 25.988 119.523 26.564C120.087 27.14 120.369 27.92 120.369 28.904C120.369 29.96 120.057 30.74 119.433 31.244C118.809 31.748 117.873 32 116.625 32H113.547ZM114.807 30.65H116.697C117.417 30.65 117.945 30.524 118.281 30.272C118.617 30.008 118.785 29.552 118.785 28.904C118.785 28.28 118.623 27.818 118.299 27.518C117.975 27.206 117.441 27.05 116.697 27.05H114.807V30.65ZM131.26 35.42C131.14 35.42 131.038 35.378 130.954 35.294C130.882 35.222 130.846 35.126 130.846 35.006V32C129.79 32 128.92 31.826 128.236 31.478C127.564 31.13 127.06 30.65 126.724 30.038C126.4 29.426 126.214 28.73 126.166 27.95C126.142 27.53 126.142 27.11 126.166 26.69C126.214 25.898 126.406 25.202 126.742 24.602C127.078 23.99 127.582 23.51 128.254 23.162C128.938 22.814 129.802 22.64 130.846 22.64V19.634C130.846 19.514 130.882 19.418 130.954 19.346C131.038 19.262 131.14 19.22 131.26 19.22H132.106C132.226 19.22 132.322 19.262 132.394 19.346C132.478 19.418 132.52 19.514 132.52 19.634V22.64C133.564 22.64 134.422 22.814 135.094 23.162C135.778 23.51 136.288 23.99 136.624 24.602C136.972 25.202 137.164 25.898 137.2 26.69C137.224 27.11 137.224 27.53 137.2 27.95C137.164 28.73 136.978 29.426 136.642 30.038C136.306 30.65 135.802 31.13 135.13 31.478C134.458 31.826 133.588 32 132.52 32V35.006C132.52 35.126 132.478 35.222 132.394 35.294C132.322 35.378 132.226 35.42 132.106 35.42H131.26ZM130.846 30.614V24.026C129.874 24.026 129.142 24.26 128.65 24.728C128.158 25.196 127.888 25.892 127.84 26.816C127.828 26.996 127.822 27.17 127.822 27.338C127.822 27.494 127.828 27.656 127.84 27.824C127.9 28.748 128.17 29.444 128.65 29.912C129.142 30.38 129.874 30.614 130.846 30.614ZM132.52 30.614C133.504 30.614 134.236 30.38 134.716 29.912C135.208 29.432 135.478 28.736 135.526 27.824C135.538 27.656 135.544 27.494 135.544 27.338C135.544 27.17 135.538 26.996 135.526 26.816C135.49 25.892 135.22 25.196 134.716 24.728C134.224 24.26 133.492 24.026 132.52 24.026V30.614ZM142.075 32.18C141.475 32.18 140.929 32.06 140.437 31.82C139.945 31.58 139.549 31.256 139.249 30.848C138.949 30.44 138.799 29.978 138.799 29.462C138.799 28.634 139.135 27.974 139.807 27.482C140.479 26.99 141.355 26.666 142.435 26.51L145.117 26.132V25.61C145.117 25.034 144.949 24.584 144.613 24.26C144.289 23.936 143.755 23.774 143.011 23.774C142.471 23.774 142.033 23.882 141.697 24.098C141.373 24.314 141.145 24.59 141.013 24.926C140.941 25.106 140.815 25.196 140.635 25.196H139.825C139.693 25.196 139.591 25.16 139.519 25.088C139.459 25.004 139.429 24.908 139.429 24.8C139.429 24.62 139.495 24.398 139.627 24.134C139.771 23.87 139.987 23.612 140.275 23.36C140.563 23.108 140.929 22.898 141.373 22.73C141.829 22.55 142.381 22.46 143.029 22.46C143.749 22.46 144.355 22.556 144.847 22.748C145.339 22.928 145.723 23.174 145.999 23.486C146.287 23.798 146.491 24.152 146.611 24.548C146.743 24.944 146.809 25.346 146.809 25.754V31.586C146.809 31.706 146.767 31.808 146.683 31.892C146.611 31.964 146.515 32 146.395 32H145.567C145.435 32 145.333 31.964 145.261 31.892C145.189 31.808 145.153 31.706 145.153 31.586V30.812C144.997 31.028 144.787 31.244 144.523 31.46C144.259 31.664 143.929 31.838 143.533 31.982C143.137 32.114 142.651 32.18 142.075 32.18ZM142.453 30.83C142.945 30.83 143.395 30.728 143.803 30.524C144.211 30.308 144.529 29.978 144.757 29.534C144.997 29.09 145.117 28.532 145.117 27.86V27.356L143.029 27.662C142.177 27.782 141.535 27.986 141.103 28.274C140.671 28.55 140.455 28.904 140.455 29.336C140.455 29.672 140.551 29.954 140.743 30.182C140.947 30.398 141.199 30.56 141.499 30.668C141.811 30.776 142.129 30.83 142.453 30.83ZM149.792 32C149.684 32 149.588 31.964 149.504 31.892C149.432 31.808 149.396 31.718 149.396 31.622V23.054C149.396 22.934 149.432 22.838 149.504 22.766C149.588 22.682 149.69 22.64 149.81 22.64H150.674C150.794 22.64 150.89 22.682 150.962 22.766C151.034 22.838 151.07 22.934 151.07 23.054V30.686L150.602 30.2L156.056 22.91C156.116 22.838 156.182 22.778 156.254 22.73C156.326 22.67 156.416 22.64 156.524 22.64H157.352C157.448 22.64 157.532 22.676 157.604 22.748C157.688 22.82 157.73 22.904 157.73 23V31.586C157.73 31.706 157.688 31.808 157.604 31.892C157.532 31.964 157.436 32 157.316 32H156.47C156.338 32 156.236 31.964 156.164 31.892C156.092 31.808 156.056 31.706 156.056 31.586V24.404L156.56 24.386L151.07 31.73C151.022 31.79 150.962 31.85 150.89 31.91C150.818 31.97 150.722 32 150.602 32H149.792ZM153.608 21.398C152.912 21.398 152.366 21.29 151.97 21.074C151.574 20.858 151.298 20.582 151.142 20.246C150.986 19.898 150.908 19.538 150.908 19.166C150.908 19.07 150.932 18.992 150.98 18.932C151.04 18.86 151.13 18.824 151.25 18.824H151.862C151.97 18.824 152.054 18.86 152.114 18.932C152.174 18.992 152.204 19.07 152.204 19.166C152.204 19.442 152.294 19.7 152.474 19.94C152.666 20.168 153.044 20.282 153.608 20.282C154.184 20.282 154.562 20.168 154.742 19.94C154.922 19.7 155.012 19.442 155.012 19.166C155.012 19.07 155.042 18.992 155.102 18.932C155.162 18.86 155.246 18.824 155.354 18.824H155.984C156.092 18.824 156.176 18.86 156.236 18.932C156.296 18.992 156.326 19.07 156.326 19.166C156.326 19.538 156.242 19.898 156.074 20.246C155.918 20.582 155.642 20.858 155.246 21.074C154.85 21.29 154.304 21.398 153.608 21.398ZM159.915 32C159.795 32 159.693 31.958 159.609 31.874C159.525 31.79 159.483 31.688 159.483 31.568V30.902C159.483 30.65 159.609 30.518 159.861 30.506C160.233 30.494 160.545 30.32 160.797 29.984C161.049 29.636 161.241 29.09 161.373 28.346C161.505 27.59 161.571 26.594 161.571 25.358V23.054C161.571 22.934 161.607 22.838 161.679 22.766C161.763 22.682 161.865 22.64 161.985 22.64H167.709C167.829 22.64 167.925 22.682 167.997 22.766C168.081 22.838 168.123 22.934 168.123 23.054V31.586C168.123 31.706 168.081 31.808 167.997 31.892C167.925 31.964 167.829 32 167.709 32H166.845C166.725 32 166.629 31.964 166.557 31.892C166.485 31.808 166.449 31.706 166.449 31.586V24.08H163.209V25.556C163.209 26.708 163.143 27.698 163.011 28.526C162.879 29.342 162.675 30.008 162.399 30.524C162.135 31.028 161.793 31.4 161.373 31.64C160.965 31.88 160.479 32 159.915 32Z" fill="#888888"/>
<path d="M190.75 15H193.879C194.277 15.0001 194.658 15.158 194.939 15.4392L201.561 22.0608C201.842 22.342 202 22.7234 202 23.1211V32.25C202 32.8467 201.763 33.419 201.341 33.841C200.919 34.2629 200.347 34.5 199.75 34.5H190C189.403 34.5 188.831 34.2629 188.409 33.841C187.987 33.419 187.75 32.8467 187.75 32.25V26.25" stroke="#9C9C9C" stroke-linecap="round" stroke-linejoin="round"/>
<path d="M194.5 15.375V21C194.5 21.3978 194.658 21.7794 194.939 22.0607C195.221 22.342 195.602 22.5 196 22.5H201.625" stroke="#9C9C9C" stroke-linecap="round" stroke-linejoin="round"/>
<path d="M188.5 15.75V22.875C188.502 23.0233 188.474 23.1704 188.418 23.3078C188.362 23.4452 188.28 23.57 188.175 23.6748C188.07 23.7797 187.945 23.8625 187.808 23.9183C187.67 23.9742 187.523 24.002 187.375 24C186.812 24 186.25 23.5734 186.25 22.875V16.125C186.25 14.6911 187.027 13.5 188.5 13.5C189.973 13.5 190.75 14.6625 190.75 16.0959V22.5998C190.75 24.6155 189.446 26.25 187.375 26.25C185.304 26.25 184 24.6159 184 22.5998V18.75" stroke="#9C9C9C" stroke-miterlimit="10" stroke-linecap="round"/>
</svg>
